<?xml version="1.0" encoding="utf-8"?>
<!-- Generator: Adobe Illustrator 16.0.0, SVG Export Plug-In . SVG Version: 6.00 Build 0)  -->
<!DOCTYPE svg PUBLIC "-//W3C//DTD SVG 1.1//EN" "http://www.w3.org/Graphics/SVG/1.1/DTD/svg11.dtd">
<svg version="1.1" id="Layer_1" xmlns="http://www.w3.org/2000/svg" xmlns:xlink="http://www.w3.org/1999/xlink" x="0px" y="0px"
	 width="786.5px" height="173px" viewBox="0 0 786.5 173" enable-background="new 0 0 786.5 173" xml:space="preserve">
<g>
	<path fill-rule="evenodd" clip-rule="evenodd" fill="#F8A01B" d="M147.399,6.104c-6.602-4.679-15.192-4.863-21.622-0.466
		c-6.803,4.651-9.811,12.671-7.701,20.697c0.58,2.225,0.529,4.325-0.532,6.413c-1.932,3.803-4.849,6.708-8.225,9.203
		c-2.519,1.871-4.991,2.035-7.893,0.496c-0.63-0.334-1.266-0.64-1.904-0.932c-9.188-5.919-20.219-9.177-31.971-8.696
		c-10.678,0.438-20.513,3.903-28.729,9.521c-1.833,0.278-3.531-0.215-5.082-1.563C31.705,39,30.09,36.87,28.909,34.43
		c-0.658-1.357-0.836-2.75-0.197-4.2c0.587-1.344,0.793-2.776,0.88-4.234c0.345-5.783-3.054-11.15-8.462-13.331
		c-5.321-2.144-11.593-0.659-15.26,3.609c-3.798,4.423-4.506,10.568-1.784,15.473c2.882,5.19,8.431,7.883,14.329,6.907
		c1.632-0.266,3.138-0.091,4.564,0.81c2.596,1.64,4.486,3.927,6.048,6.516c0.897,1.476,1.074,2.868,0.53,4.325
		C19.916,60.672,14.253,74.729,14.877,89.99c0.455,11.098,4.181,21.285,10.195,29.693c0.249,0.666,0.522,1.33,0.848,1.984
		c0.958,1.92,0.879,3.731-0.389,5.431c-1.248,1.67-2.796,3.036-4.607,4.087c-1.005,0.584-2.068,0.802-3.22,0.396
		c-1.068-0.376-2.185-0.452-3.314-0.435c-4.471,0.07-8.407,2.996-9.773,7.288c-1.344,4.22,0.162,8.966,3.659,11.543
		c3.626,2.667,8.4,2.857,12.02,0.478c3.83-2.519,5.583-6.947,4.491-11.434c-0.299-1.239-0.25-2.411,0.359-3.561
		c1.113-2.092,2.765-3.682,4.666-5.033c1.42-1.015,2.797-1.081,4.394-0.199c0.614,0.34,1.237,0.633,1.865,0.904
		c9.898,7.702,22.465,12.086,35.979,11.531c7.125-0.29,13.869-1.938,20.015-4.664c0.346-0.089,0.693-0.161,1.04-0.264
		c2.725-0.808,5.072-0.286,6.999,1.761c1.894,2.016,3.323,4.353,4.275,6.956c0.53,1.45,0.574,2.89-0.226,4.297
		c-0.738,1.309-1.093,2.749-1.33,4.229c-0.942,5.854,1.972,11.667,7.257,14.441c5.2,2.728,11.745,1.861,15.917-2.116
		c4.319-4.118,5.669-10.306,3.396-15.581c-2.405-5.582-7.784-8.893-13.891-8.5c-1.69,0.106-3.205-0.232-4.566-1.291
		c-2.48-1.936-4.168-4.46-5.499-7.254c-0.978-2.054-0.766-3.84,0.69-5.688c11.996-10.575,19.303-26.269,18.597-43.495
		c-0.33-8.071-2.398-15.654-5.806-22.427c-0.611-1.856-1.379-3.694-2.319-5.494c-1.784-3.42-1.704-6.679,0.525-9.775
		c2.188-3.048,4.925-5.555,8.147-7.497c1.789-1.083,3.692-1.516,5.775-0.818c1.935,0.643,3.945,0.739,5.974,0.671
		c8.034-0.268,15.016-5.657,17.333-13.413C156.633,19.108,153.773,10.625,147.399,6.104z"/>
	<path fill="#F8A01D" d="M230.827,48.139v13.307H207.51v66.492h-16.554V61.446h-23.318V48.139H230.827z"/>
	<path fill="#F8A01D" d="M288.072,48.139v12.922h-34.207v20.515h26.617V94.06h-26.617v20.953h34.207v12.925h-50.815V48.139H288.072z
		"/>
	<path fill="#F8A01D" d="M350.402,108.303c0.916,0,1.686,0.33,2.31,0.99l6.544,6.985c-3.227,4.104-7.232,7.221-12.017,9.349
		c-4.783,2.124-10.477,3.188-17.075,3.188c-5.976,0-11.347-1.017-16.114-3.052c-4.766-2.034-8.817-4.867-12.153-8.494
		c-3.336-3.631-5.903-7.94-7.699-12.925c-1.797-4.987-2.695-10.432-2.695-16.334c0-3.96,0.43-7.727,1.292-11.302
		c0.86-3.575,2.117-6.864,3.767-9.873c1.649-3.005,3.638-5.719,5.967-8.139c2.328-2.419,4.958-4.482,7.892-6.188
		c2.933-1.704,6.132-3.005,9.596-3.904c3.465-0.897,7.158-1.347,11.082-1.347c2.933,0,5.71,0.258,8.332,0.771
		c2.62,0.512,5.068,1.228,7.342,2.145c2.272,0.916,4.372,2.025,6.296,3.326c1.925,1.302,3.658,2.722,5.198,4.264l-5.555,7.588
		c-0.331,0.478-0.752,0.899-1.265,1.264c-0.514,0.367-1.209,0.551-2.09,0.551s-1.77-0.311-2.668-0.935
		c-0.898-0.624-1.999-1.321-3.299-2.09c-1.302-0.77-2.933-1.464-4.894-2.091c-1.963-0.621-4.447-0.934-7.453-0.934
		c-3.336,0-6.397,0.605-9.183,1.815c-2.787,1.209-5.18,2.961-7.178,5.253c-1.999,2.291-3.547,5.104-4.647,8.439
		c-1.099,3.339-1.65,7.133-1.65,11.386c0,4.289,0.596,8.11,1.788,11.465c1.19,3.355,2.822,6.189,4.894,8.498
		c2.071,2.309,4.491,4.062,7.259,5.252c2.768,1.19,5.729,1.788,8.881,1.788c1.87,0,3.565-0.092,5.087-0.277
		c1.521-0.181,2.932-0.493,4.235-0.933c1.301-0.442,2.529-1.006,3.685-1.704c1.155-0.697,2.318-1.577,3.492-2.643
		c0.403-0.328,0.826-0.605,1.264-0.823C349.411,108.413,349.888,108.303,350.402,108.303z"/>
	<path fill="#75706B" d="M414.965,63.426c-0.515,0.845-1.035,1.458-1.565,1.843c-0.534,0.387-1.222,0.577-2.062,0.577
		c-0.807,0-1.679-0.283-2.613-0.852c-0.936-0.568-2.025-1.183-3.271-1.843c-1.249-0.661-2.679-1.274-4.292-1.843
		c-1.613-0.567-3.502-0.853-5.663-0.853c-3.815,0-6.674,0.853-8.581,2.559c-1.906,1.706-2.859,3.932-2.859,6.681
		c0,1.76,0.522,3.218,1.567,4.374c1.046,1.154,2.421,2.153,4.125,2.996c1.704,0.845,3.638,1.595,5.802,2.255
		c2.162,0.659,4.382,1.385,6.654,2.173c2.273,0.788,4.492,1.712,6.655,2.777c2.163,1.063,4.095,2.403,5.801,4.015
		c1.705,1.615,3.079,3.584,4.125,5.915c1.045,2.326,1.567,5.157,1.567,8.492c0,3.631-0.632,7.032-1.897,10.203
		c-1.265,3.172-3.088,5.938-5.471,8.304c-2.384,2.365-5.327,4.227-8.826,5.582c-3.503,1.356-7.471,2.034-11.908,2.034
		c-2.53,0-5.051-0.256-7.562-0.769c-2.511-0.513-4.931-1.23-7.259-2.146c-2.329-0.916-4.519-2.015-6.572-3.301
		c-2.054-1.281-3.85-2.712-5.39-4.288l4.84-7.809c0.403-0.587,0.935-1.072,1.595-1.457c0.659-0.386,1.355-0.58,2.089-0.58
		c0.99,0,2.036,0.367,3.135,1.103c1.1,0.732,2.365,1.54,3.795,2.419c1.429,0.88,3.088,1.686,4.976,2.42
		c1.888,0.733,4.152,1.101,6.793,1.101c3.849,0,6.828-0.88,8.936-2.641c2.107-1.759,3.162-4.38,3.162-7.865
		c0-2.015-0.522-3.647-1.566-4.893c-1.047-1.248-2.412-2.291-4.098-3.134c-1.687-0.846-3.611-1.57-5.775-2.174
		c-2.163-0.603-4.382-1.274-6.654-2.008c-2.273-0.732-4.492-1.613-6.654-2.639c-2.164-1.027-4.088-2.384-5.775-4.071
		c-1.686-1.686-3.051-3.775-4.097-6.27c-1.045-2.494-1.567-5.591-1.567-9.294c0-2.97,0.586-5.847,1.76-8.634
		c1.173-2.787,2.896-5.261,5.17-7.424c2.272-2.162,5.068-3.904,8.387-5.225c3.317-1.321,7.121-1.98,11.411-1.98
		c4.802,0,9.247,0.742,13.337,2.228c4.087,1.485,7.541,3.547,10.366,6.187L414.965,63.426z"/>
	<path fill="#75706B" d="M443.393,127.938h-16.607V48.139h16.607V127.938z"/>
	<path fill="#75706B" d="M460.299,48.221c0.494,0.055,0.944,0.184,1.348,0.384c0.403,0.202,0.787,0.467,1.154,0.796
		c0.366,0.331,0.771,0.772,1.209,1.321l40.036,50.871c-0.146-1.392-0.256-2.749-0.329-4.069s-0.108-2.566-0.108-3.741V48.139h14.573
		v79.799h-8.523c-1.284,0-2.366-0.212-3.246-0.635c-0.879-0.422-1.743-1.146-2.584-2.171L464.067,74.59
		c0.108,1.285,0.193,2.539,0.248,3.769c0.054,1.228,0.081,2.372,0.081,3.436v46.143h-14.573V48.139h8.688
		C459.207,48.139,459.804,48.165,460.299,48.221z"/>
	<path fill="#75706B" d="M603.802,127.938h-12.813c-1.43,0-2.594-0.342-3.492-1.02c-0.897-0.676-1.567-1.548-2.007-2.611
		l-5.39-15.233h-31.787l-5.388,15.233c-0.369,0.916-1.011,1.751-1.926,2.501c-0.918,0.753-2.071,1.13-3.466,1.13h-12.925
		l31.185-79.799h16.882L603.802,127.938z M552.328,97.634h23.757l-8.633-24.417c-0.516-1.284-1.055-2.788-1.623-4.512
		c-0.569-1.723-1.127-3.574-1.678-5.554c-0.515,2.017-1.045,3.896-1.595,5.638c-0.551,1.742-1.083,3.253-1.596,4.537L552.328,97.634
		z"/>
	<path fill="#75706B" d="M626.731,100.494v27.443h-16.498V48.139h26.947c5.462,0,10.183,0.64,14.161,1.924
		c3.977,1.284,7.249,3.071,9.816,5.362c2.566,2.291,4.464,5.013,5.692,8.168c1.228,3.152,1.843,6.582,1.843,10.282
		c0,3.926-0.643,7.517-1.926,10.78c-1.283,3.265-3.227,6.068-5.83,8.415c-2.603,2.346-5.884,4.169-9.844,5.47
		c-3.96,1.303-8.599,1.955-13.913,1.955H626.731z M626.731,87.844h10.449c5.17,0,8.955-1.246,11.356-3.739
		c2.401-2.493,3.601-5.903,3.601-10.23c0-1.978-0.3-3.785-0.906-5.416c-0.604-1.629-1.521-3.024-2.749-4.178
		c-1.228-1.157-2.778-2.044-4.647-2.668c-1.87-0.623-4.087-0.935-6.654-0.935h-10.449V87.844z"/>
	<path fill="#75706B" d="M721.398,63.426c-0.512,0.845-1.035,1.458-1.567,1.843c-0.531,0.387-1.219,0.577-2.062,0.577
		c-0.807,0-1.678-0.283-2.611-0.852c-0.936-0.568-2.026-1.183-3.272-1.843c-1.246-0.661-2.676-1.274-4.289-1.843
		c-1.615-0.567-3.502-0.853-5.665-0.853c-3.814,0-6.673,0.853-8.579,2.559c-1.907,1.706-2.859,3.932-2.859,6.681
		c0,1.76,0.522,3.218,1.567,4.374c1.045,1.154,2.42,2.153,4.123,2.996c1.706,0.845,3.641,1.595,5.804,2.255
		c2.161,0.659,4.38,1.385,6.654,2.173c2.274,0.788,4.49,1.712,6.653,2.777c2.164,1.063,4.098,2.403,5.802,4.015
		c1.706,1.615,3.081,3.584,4.126,5.915c1.045,2.326,1.568,5.157,1.568,8.492c0,3.631-0.633,7.032-1.899,10.203
		c-1.265,3.172-3.089,5.938-5.471,8.304c-2.383,2.365-5.327,4.227-8.827,5.582c-3.501,1.356-7.47,2.034-11.905,2.034
		c-2.531,0-5.053-0.256-7.562-0.769c-2.512-0.513-4.932-1.23-7.259-2.146c-2.328-0.916-4.521-2.015-6.571-3.301
		c-2.055-1.281-3.852-2.712-5.392-4.288l4.839-7.809c0.404-0.587,0.936-1.072,1.597-1.457c0.66-0.386,1.355-0.58,2.09-0.58
		c0.989,0,2.034,0.367,3.134,1.103c1.101,0.732,2.364,1.54,3.794,2.419c1.43,0.88,3.09,1.686,4.979,2.42
		c1.887,0.733,4.151,1.101,6.79,1.101c3.851,0,6.828-0.88,8.938-2.641c2.107-1.759,3.161-4.38,3.161-7.865
		c0-2.015-0.521-3.647-1.566-4.893c-1.045-1.248-2.411-2.291-4.097-3.134c-1.688-0.846-3.613-1.57-5.775-2.174
		c-2.164-0.603-4.381-1.274-6.654-2.008c-2.274-0.732-4.491-1.613-6.654-2.639c-2.163-1.027-4.089-2.384-5.775-4.071
		c-1.686-1.686-3.051-3.775-4.096-6.27c-1.046-2.494-1.567-5.591-1.567-9.294c0-2.97,0.586-5.847,1.759-8.634
		c1.175-2.787,2.896-5.261,5.171-7.424c2.271-2.162,5.067-3.904,8.387-5.225c3.317-1.321,7.121-1.98,11.41-1.98
		c4.802,0,9.248,0.742,13.337,2.228c4.088,1.485,7.542,3.547,10.367,6.187L721.398,63.426z"/>
	<path fill="#75706B" d="M784.032,48.139v12.922h-34.206v20.515h26.618V94.06h-26.618v20.953h34.206v12.925h-50.813V48.139H784.032z
		"/>
	<path opacity="0.3" fill-rule="evenodd" clip-rule="evenodd" fill="#F9C610" d="M18.415,38.655c1.632-0.266,3.138-0.091,4.564,0.81
		c2.596,1.64,4.486,3.927,6.048,6.516c0.897,1.476,1.074,2.868,0.53,4.325C19.916,60.672,14.253,74.729,14.877,89.99
		c0.137,3.307,0.568,6.531,1.259,9.655c11.366-7.186,24.217-12.446,38.197-15.221c24.674-4.897,49.062-1.317,70.155,8.721
		c0.246-2.511,0.341-5.06,0.235-7.651c-0.33-8.071-2.398-15.654-5.806-22.427c-0.611-1.856-1.379-3.694-2.319-5.494
		c-1.784-3.42-1.704-6.679,0.525-9.775c2.188-3.048,4.925-5.555,8.147-7.497c1.789-1.083,3.692-1.516,5.775-0.818
		c1.935,0.643,3.945,0.739,5.974,0.671c8.034-0.268,15.016-5.657,17.333-13.413c2.28-7.633-0.58-16.117-6.954-20.637
		c-6.602-4.679-15.192-4.863-21.622-0.466c-6.803,4.651-9.811,12.671-7.701,20.697c0.58,2.225,0.529,4.325-0.532,6.413
		c-1.932,3.803-4.849,6.708-8.225,9.203c-2.519,1.871-4.991,2.035-7.893,0.496c-0.63-0.334-1.266-0.64-1.904-0.932
		c-9.188-5.919-20.219-9.177-31.971-8.696c-10.678,0.438-20.513,3.903-28.729,9.521c-1.833,0.278-3.531-0.215-5.082-1.563
		C31.705,39,30.09,36.87,28.909,34.43c-0.658-1.357-0.836-2.75-0.197-4.2c0.587-1.344,0.793-2.776,0.88-4.234
		c0.345-5.783-3.054-11.15-8.462-13.331c-5.321-2.144-11.593-0.659-15.26,3.609c-3.798,4.423-4.506,10.568-1.784,15.473
		C6.968,36.938,12.517,39.63,18.415,38.655z"/>
</g>
</svg>
